<svg t="1679836226637" class="icon" viewBox="0 0 1026 1024" version="1.1" xmlns="http://www.w3.org/2000/svg" p-id="1002" width="200" height="200"><path d="M773.12 548.864c-0.512 3.584-1.024 7.168-2.048 10.752-2.048 9.216-7.168 17.408-13.312 24.064l-3.072 3.072-404.992 389.632c-12.8 12.288-27.136 18.432-45.056 17.408-31.232-1.024-56.832-28.672-54.272-58.368 1.024-14.336 7.68-26.624 17.92-36.864l364.544-350.208c1.024-1.024 2.048-1.536 4.096-3.584-2.048-1.024-3.584-1.536-4.608-2.56C510.464 425.472 389.12 308.224 267.264 191.488c-9.728-9.728-16.896-20.992-18.432-34.304 0-0.512-0.512-0.512-0.512-1.024v-11.776c0-0.512 0.512-1.024 0.512-2.048 3.584-22.016 19.456-39.424 41.984-45.056l8.704-2.048h12.288c0 0.512 0.512 0.512 1.024 0.512 14.336 1.536 26.112 8.192 35.84 18.432 26.112 25.6 52.736 50.688 79.36 76.288 108.032 103.936 216.064 208.384 324.608 312.32 6.144 5.632 11.264 12.288 13.824 19.968 2.56 7.168 4.608 14.336 6.656 21.504v4.608z" p-id="1003"></path></svg>