<svg t="1679743203786" class="icon" viewBox="0 0 1024 1024" version="1.1" xmlns="http://www.w3.org/2000/svg" p-id="1140" xmlns:xlink="http://www.w3.org/1999/xlink" width="200" height="200"><path d="M504.2 949.8l-83.7-43c-37.7-19.4-61.5-59-61.5-102.3V548.3c0-6.2-2-12.2-5.6-17.2l-208.9-286C89.4 169.6 141.8 62 233.6 62h556.7c91.9 0 144.4 107.8 89.2 183.3L670.8 531.1c-3.6 5-5.6 11-5.6 17.2v299.2c0 85-87 140.3-161 102.3zM465.5 834l55.8 28.7c27.7 14.2 60.3-6.5 60.3-38.3V529.2c0-12.4 3.9-24.4 11.1-34.3L796 216.5c20.7-28.3 1-68.7-33.4-68.7h-501c-34.5 0-54.2 40.5-33.5 68.8l203.2 278.2c7.2 9.9 11.2 22 11.2 34.4v266.4c-0.1 16.3 8.9 31.1 23 38.4z" fill="" p-id="1141"></path></svg>